<?xml version="1.0" encoding="UTF-8" standalone="no"?>
<!-- Created with Inkscape (http://www.inkscape.org/) -->

<svg
   width="32.042881mm"
   height="32.042881mm"
   viewBox="0 0 32.042881 32.042881"
   version="1.1"
   id="svg8"
   inkscape:version="1.1.2 (0a00cf5339, 2022-02-04)"
   sodipodi:docname="side.svg"
   inkscape:export-filename="/home/jerome/Work/Radon/src/radon-web/project/static/img/radon_brand.png"
   inkscape:export-xdpi="58.0205"
   inkscape:export-ydpi="58.0205"
   xmlns:inkscape="http://www.inkscape.org/namespaces/inkscape"
   xmlns:sodipodi="http://sodipodi.sourceforge.net/DTD/sodipodi-0.dtd"
   xmlns="http://www.w3.org/2000/svg"
   xmlns:svg="http://www.w3.org/2000/svg"
   xmlns:rdf="http://www.w3.org/1999/02/22-rdf-syntax-ns#"
   xmlns:cc="http://creativecommons.org/ns#"
   xmlns:dc="http://purl.org/dc/elements/1.1/">
  <defs
     id="defs2" />
  <sodipodi:namedview
     id="base"
     pagecolor="#ffffff"
     bordercolor="#666666"
     borderopacity="1.0"
     inkscape:pageopacity="0.0"
     inkscape:pageshadow="2"
     inkscape:zoom="2.1454118"
     inkscape:cx="39.852488"
     inkscape:cy="112.33274"
     inkscape:document-units="mm"
     inkscape:current-layer="text4520"
     showgrid="false"
     inkscape:window-width="1841"
     inkscape:window-height="1062"
     inkscape:window-x="97"
     inkscape:window-y="178"
     inkscape:window-maximized="0"
     inkscape:snap-global="false"
     fit-margin-top="0"
     fit-margin-left="0"
     fit-margin-right="0"
     fit-margin-bottom="0"
     inkscape:pagecheckerboard="0" />
  <metadata
     id="metadata5">
    <rdf:RDF>
      <cc:Work
         rdf:about="">
        <dc:format>image/svg+xml</dc:format>
        <dc:type
           rdf:resource="http://purl.org/dc/dcmitype/StillImage" />
      </cc:Work>
    </rdf:RDF>
  </metadata>
  <g
     inkscape:label="Layer 1"
     inkscape:groupmode="layer"
     id="layer1"
     transform="translate(-37.202066,-68.969358)">
    <g
       aria-label="Radon"
       style="font-style:normal;font-weight:normal;font-size:2.64583px;line-height:125%;font-family:sans-serif;letter-spacing:0px;word-spacing:0px;fill:#000000;fill-opacity:1;stroke:none;stroke-width:0.264583px;stroke-linecap:butt;stroke-linejoin:miter;stroke-opacity:1"
       id="text4520">
      <g
         id="g1242">
        <circle
           style="fill:#ffffff;fill-opacity:1;stroke:#000000;stroke-width:1.07213"
           id="path857"
           cx="53.223507"
           cy="84.990799"
           r="15.485376" />
        <g
           id="g5258"
           transform="matrix(0.06123543,0,0,0.06123543,38.877911,70.539983)"
           style="stroke-width:1.24536px">
          <path
             id="path5236"
             d="m 462.5,242.5 c -4.142,0 -7.5,-3.357 -7.5,-7.5 0,-38.635 -88.401,-80 -220,-80 -131.599,0 -220,41.365 -220,80 0,4.143 -3.358,7.5 -7.5,7.5 C 3.358,242.5 0,239.142 0,235 0,208.307 25.372,183.848 71.441,166.128 115.249,149.279 173.335,140 235,140 c 61.665,0 119.751,9.279 163.559,26.128 C 444.628,183.848 470,208.307 470,235 c 0,4.142 -3.358,7.5 -7.5,7.5 z"
             style="fill:#082947;stroke-width:1.24536px"
             inkscape:connector-curvature="0" />
          <path
             id="path5238"
             d="m 121.243,439.522 c -1.272,0 -2.562,-0.324 -3.743,-1.006 -23.118,-13.348 -31.614,-47.55 -23.924,-96.306 7.312,-46.363 28.319,-101.307 59.152,-154.711 30.833,-53.403 67.912,-99.068 104.407,-128.582 38.38,-31.037 72.247,-40.78 95.365,-27.434 3.587,2.071 4.816,6.658 2.745,10.245 -2.072,3.587 -6.658,4.813 -10.245,2.745 C 311.544,25.154 231.516,81.033 165.718,195 99.919,308.968 91.542,406.209 125,425.526 c 3.587,2.071 4.816,6.658 2.745,10.245 -1.389,2.407 -3.91,3.751 -6.502,3.751 z"
             style="fill:#274b6d;stroke-width:1.24536px"
             inkscape:connector-curvature="0" />
          <path
             id="path5240"
             d="m 329.625,444.347 c -20.431,0.002 -45.329,-11.299 -72.49,-33.264 C 220.64,381.568 183.561,335.904 152.728,282.5 121.895,229.096 100.888,174.152 93.576,127.79 85.887,79.033 94.383,44.831 117.5,31.484 c 3.587,-2.07 8.174,-0.843 10.245,2.745 2.071,3.587 0.842,8.174 -2.745,10.245 -17.112,9.88 -23.166,39.396 -16.607,80.979 7.032,44.588 27.391,97.698 57.325,149.547 57.217,99.103 125.197,154.279 163.955,154.285 5.813,10e-4 10.963,-1.239 15.327,-3.759 3.587,-2.07 8.174,-0.843 10.245,2.745 2.071,3.587 0.842,8.174 -2.745,10.245 -6.757,3.902 -14.437,5.831 -22.875,5.831 z"
             style="fill:#6da8d6;stroke-width:1.24536px"
             inkscape:connector-curvature="0" />
          <path
             id="path5242"
             d="M 235,330 C 173.334,330 115.248,320.721 71.441,303.872 25.372,286.153 0,261.693 0,235 c 0,-4.143 3.358,-7.5 7.5,-7.5 4.142,0 7.5,3.357 7.5,7.5 0,38.635 88.401,80 220,80 131.599,0 220,-41.365 220,-80 0,-4.143 3.358,-7.5 7.5,-7.5 4.142,0 7.5,3.357 7.5,7.5 0,26.693 -25.372,51.153 -71.441,68.872 C 354.752,320.721 296.666,330 235,330 Z"
             style="fill:#082947;stroke-width:1.24536px"
             inkscape:connector-curvature="0" />
          <circle
             id="circle5244"
             r="20"
             cy="185.05701"
             cx="49.396999"
             style="fill:#6da8d6;stroke-width:1.24536px" />
          <circle
             id="circle5246"
             r="19.997"
             cy="421.74899"
             cx="284.94901"
             style="fill:#f2484b;stroke-width:1.24536px" />
          <circle
             id="circle5248"
             r="19.997"
             cy="98.542999"
             cx="98.346001"
             style="fill:#f2484b;stroke-width:1.24536px" />
          <circle
             id="circle5250"
             r="45"
             cy="235"
             cx="235"
             style="fill:#f48205;stroke-width:1.24536px" />
          <path
             id="path5252"
             d="m 140.375,444.347 c -8.44,0 -16.116,-1.928 -22.875,-5.83 -3.587,-2.071 -4.816,-6.658 -2.745,-10.245 2.071,-3.588 6.658,-4.816 10.245,-2.745 33.458,19.32 113.483,-36.56 179.282,-150.526 29.935,-51.849 50.293,-104.959 57.325,-149.547 6.558,-41.583 0.505,-71.099 -16.607,-80.979 -3.587,-2.071 -4.816,-6.658 -2.745,-10.245 2.071,-3.588 6.658,-4.816 10.245,-2.745 23.118,13.347 31.614,47.549 23.924,96.306 -7.312,46.362 -28.319,101.306 -59.152,154.71 -30.833,53.404 -67.912,99.068 -104.407,128.583 -27.159,21.962 -52.06,33.263 -72.49,33.263 z"
             style="fill:#274b6d;stroke-width:1.24536px"
             inkscape:connector-curvature="0" />
          <path
             id="path5254"
             d="m 348.757,439.522 c -2.592,0 -5.113,-1.345 -6.502,-3.751 -2.071,-3.587 -0.842,-8.174 2.745,-10.245 C 378.458,406.209 370.081,308.967 304.282,195 238.483,81.033 158.458,25.158 125,44.474 c -3.587,2.069 -8.174,0.843 -10.245,-2.745 -2.071,-3.587 -0.842,-8.174 2.745,-10.245 23.119,-13.348 56.986,-3.604 95.365,27.434 36.496,29.514 73.575,75.179 104.407,128.582 30.833,53.404 51.84,108.348 59.152,154.711 7.689,48.756 -0.807,82.958 -23.924,96.306 -1.181,0.681 -2.471,1.005 -3.743,1.005 z"
             style="fill:#6da8d6;stroke-width:1.24536px"
             inkscape:connector-curvature="0" />
          <circle
             id="circle5256"
             r="19.997"
             cy="98.542999"
             cx="371.65399"
             style="fill:#6da8d6;stroke-width:1.24536px" />
        </g>
      </g>
    </g>
  </g>
</svg>
