<?xml version="1.0" encoding="UTF-8" standalone="no"?>
<!-- Created with Inkscape (http://www.inkscape.org/) -->

<svg
   xmlns:dc="http://purl.org/dc/elements/1.1/"
   xmlns:cc="http://creativecommons.org/ns#"
   xmlns:rdf="http://www.w3.org/1999/02/22-rdf-syntax-ns#"
   xmlns:svg="http://www.w3.org/2000/svg"
   xmlns="http://www.w3.org/2000/svg"
   xmlns:xlink="http://www.w3.org/1999/xlink"
   xmlns:sodipodi="http://sodipodi.sourceforge.net/DTD/sodipodi-0.dtd"
   xmlns:inkscape="http://www.inkscape.org/namespaces/inkscape"
   width="150mm"
   height="50mm"
   viewBox="0 0 150 50"
   version="1.1"
   id="svg8"
   inkscape:version="0.92.3 (2405546, 2018-03-11)"
   sodipodi:docname="radon2.svg"
   inkscape:export-filename="/home/jerome/Work/Radon/src/radon-web/project/static/img/radon2.png"
   inkscape:export-xdpi="58.0205"
   inkscape:export-ydpi="58.0205">
  <defs
     id="defs2">
    <linearGradient
       inkscape:collect="always"
       id="linearGradient4651">
      <stop
         style="stop-color:#3c43fe;stop-opacity:1;"
         offset="0"
         id="stop4647" />
      <stop
         style="stop-color:#3c43fe;stop-opacity:0;"
         offset="1"
         id="stop4649" />
    </linearGradient>
    <linearGradient
       inkscape:collect="always"
       xlink:href="#linearGradient4651"
       id="linearGradient4617"
       x1="114.36002"
       y1="90.858162"
       x2="113.36928"
       y2="127.71363"
       gradientUnits="userSpaceOnUse"
       gradientTransform="translate(10.493578,-5.3159909)" />
    <linearGradient
       inkscape:collect="always"
       xlink:href="#linearGradient4651"
       id="linearGradient4637"
       x1="114.36002"
       y1="90.858162"
       x2="113.36928"
       y2="127.71363"
       gradientUnits="userSpaceOnUse"
       gradientTransform="translate(10.493578,-5.3159909)" />
    <linearGradient
       inkscape:collect="always"
       xlink:href="#linearGradient4651"
       id="linearGradient4645"
       x1="114.36002"
       y1="90.858162"
       x2="113.36928"
       y2="127.71363"
       gradientUnits="userSpaceOnUse"
       gradientTransform="translate(10.493578,-5.3159909)" />
    <linearGradient
       inkscape:collect="always"
       xlink:href="#linearGradient4651"
       id="linearGradient4653"
       x1="114.36002"
       y1="90.858162"
       x2="113.36928"
       y2="127.71363"
       gradientUnits="userSpaceOnUse"
       gradientTransform="translate(10.493578,-5.3159909)" />
  </defs>
  <sodipodi:namedview
     id="base"
     pagecolor="#ffffff"
     bordercolor="#666666"
     borderopacity="1.0"
     inkscape:pageopacity="0.0"
     inkscape:pageshadow="2"
     inkscape:zoom="1.2074926"
     inkscape:cx="421.69536"
     inkscape:cy="207.98377"
     inkscape:document-units="mm"
     inkscape:current-layer="text4520"
     showgrid="false"
     inkscape:window-width="1920"
     inkscape:window-height="1136"
     inkscape:window-x="0"
     inkscape:window-y="0"
     inkscape:window-maximized="1"
     inkscape:snap-global="false"
     fit-margin-top="0"
     fit-margin-left="0"
     fit-margin-right="0"
     fit-margin-bottom="0" />
  <metadata
     id="metadata5">
    <rdf:RDF>
      <cc:Work
         rdf:about="">
        <dc:format>image/svg+xml</dc:format>
        <dc:type
           rdf:resource="http://purl.org/dc/dcmitype/StillImage" />
        <dc:title />
      </cc:Work>
    </rdf:RDF>
  </metadata>
  <g
     inkscape:label="Layer 1"
     inkscape:groupmode="layer"
     id="layer1"
     transform="translate(-30.543542,-66.221066)">
    <g
       aria-label="Radon"
       style="font-style:normal;font-weight:normal;font-size:2.64583325px;line-height:125%;font-family:sans-serif;letter-spacing:0px;word-spacing:0px;fill:#000000;fill-opacity:1;stroke:none;stroke-width:0.26458332px;stroke-linecap:butt;stroke-linejoin:miter;stroke-opacity:1"
       id="text4520">
      <g
         id="g5289"
         transform="translate(-5.8208336)">
        <path
           sodipodi:nodetypes="cccccccccc"
           inkscape:connector-curvature="0"
           id="path4524-9"
           d="m 86.796862,80.821559 c -12.352746,-0.0785 -20.554116,15.84181 -13.654294,25.855471 3.110004,4.08242 9.353344,3.37033 13.177734,1.81055 1.37067,1.97431 12.315414,1.26044 8.962894,-3.10156 -2.169064,-7.460971 2.13821,-14.839361 3.21484,-22.162111 -3.700304,-1.54655 -7.662834,-2.58645 -11.701174,-2.40235 z m -1.95312,16.08985 c -0.166043,2.890257 -4.16867,5.419911 -3.91992,1.57031 -0.26291,-3.53162 1.57981,-8.09314 5.56836,-8.38867 -0.54948,2.27278 -1.09896,4.54557 -1.64844,6.81836 z"
           style="font-style:italic;font-variant:normal;font-weight:bold;font-stretch:normal;font-size:50.79999924px;line-height:125%;font-family:'Ubuntu Mono';-inkscape-font-specification:'Ubuntu Mono, Bold Italic';font-variant-ligatures:normal;font-variant-caps:normal;font-variant-numeric:normal;font-feature-settings:normal;text-align:start;letter-spacing:0px;word-spacing:0px;writing-mode:lr-tb;text-anchor:start;fill:#000000;fill-opacity:1;stroke:none;stroke-width:0.26458332px;stroke-linecap:butt;stroke-linejoin:miter;stroke-opacity:1" />
        <path
           inkscape:connector-curvature="0"
           id="path4524"
           style="font-style:italic;font-variant:normal;font-weight:bold;font-stretch:normal;font-size:50.79999924px;font-family:'Ubuntu Mono';-inkscape-font-specification:'Ubuntu Mono, Bold Italic';font-variant-ligatures:normal;font-variant-caps:normal;font-variant-numeric:normal;font-feature-settings:normal;text-align:start;writing-mode:lr-tb;text-anchor:start;fill:url(#linearGradient4637);fill-opacity:1;stroke-width:0.26458332px"
           d="m 81.953148,102.1785 q 1.4224,0 2.3876,-0.6096 0.9652,-0.6604 1.6764,-1.524 0.1016,-0.711201 0.2032,-1.371601 0.1016,-0.6604 0.3048,-1.52399 l 2.1844,-9.042398 q -0.5588,-0.1524 -1.1684,-0.2032 -0.6096,-0.0508 -1.1684,-0.0508 -1.778,0 -3.2004,0.8636 -1.4224,0.8128 -2.4384,2.1844 -1.016,1.3716 -1.5748,3.1496 -0.508,1.777998 -0.508,3.657588 0,1.3208 0.2032,2.184405 0.254,0.863596 0.6604,1.371596 0.4572,0.508 1.0668,0.7112 0.6096,0.2032 1.3716,0.2032 z m -2.286,5.334 q -3.3528,-0.0508 -5.2832,-2.3876 -1.9304,-2.3876 -1.9304,-6.908801 0,-3.45439 1.1684,-6.349988 1.1684,-2.8956 3.2004,-4.9276 2.032,-2.0828 4.7244,-3.2004 2.7432,-1.1684 5.7912,-1.1684 2.0828,0 4.2164,0.4064 2.1336,0.4064 4.317998,1.27 l -3.149598,12.953998 q -0.2032,0.91439 -0.3048,1.82879 -0.1016,0.863605 -0.1016,1.778001 0,1.4732 0.254,2.8956 0.3048,1.3716 0.762,2.7432 l -5.4864,0.9144 q -0.1016,-0.2032 -0.254,-0.508 -0.1524,-0.3048 -0.3048,-0.6604 -0.1524,-0.3556 -0.254,-0.6096 -0.1016,-0.3048 -0.1524,-0.4572 -1.016,0.762 -2.7432,1.5748 -1.7272,0.8128 -4.4704,0.8128 z" />
      </g>
      <g
         id="g5293"
         transform="translate(-2.6458334)">
        <path
           sodipodi:nodetypes="cccccccccccc"
           inkscape:connector-curvature="0"
           id="path4526-7"
           d="m 124.20897,69.958279 c -6.52467,0.519186 -8.41069,3.538067 -9.96787,10.36539 -1.86506,1.36673 -6.15468,0.42194 -8.64149,2.25571 -8.964054,3.9562 -13.017398,17.745771 -6.046884,25.121091 3.330234,3.05097 8.709814,2.09548 12.166014,0.78711 2.16004,2.11097 13.08946,1.13881 8.62304,-4.32617 -0.81818,-10.399651 4.24786,-20.404801 5.8589,-30.615801 0.12395,-2.85638 2.48728,-4.153027 -1.99171,-3.58733 z m -13.96483,26.95313 c -0.026,3.310501 -4.16955,5.420421 -3.91992,1.57031 -0.26858,-3.52367 1.57521,-8.08949 5.56835,-8.38867 -0.54948,2.27278 -1.09896,4.54557 -1.64843,6.81836 z"
           style="font-style:italic;font-variant:normal;font-weight:bold;font-stretch:normal;font-size:50.79999924px;line-height:125%;font-family:'Ubuntu Mono';-inkscape-font-specification:'Ubuntu Mono, Bold Italic';font-variant-ligatures:normal;font-variant-caps:normal;font-variant-numeric:normal;font-feature-settings:normal;text-align:start;letter-spacing:0px;word-spacing:0px;writing-mode:lr-tb;text-anchor:start;fill:#000000;fill-opacity:1;stroke:none;stroke-width:0.26458332px;stroke-linecap:butt;stroke-linejoin:miter;stroke-opacity:1" />
        <path
           inkscape:connector-curvature="0"
           id="path4526"
           style="font-style:italic;font-variant:normal;font-weight:bold;font-stretch:normal;font-size:50.79999924px;font-family:'Ubuntu Mono';-inkscape-font-specification:'Ubuntu Mono, Bold Italic';font-variant-ligatures:normal;font-variant-caps:normal;font-variant-numeric:normal;font-feature-settings:normal;text-align:start;writing-mode:lr-tb;text-anchor:start;fill:url(#linearGradient4645);fill-opacity:1;stroke-width:0.26458332px"
           d="m 107.5864,102.38775 q 1.4224,0 2.3876,-0.6096 0.9652,-0.6604 1.6764,-1.524 0.1016,-0.711196 0.2032,-1.371601 0.1016,-0.6604 0.3048,-1.52399 l 2.18441,-9.042395 q -0.5588,-0.1524 -1.1684,-0.2032 -0.6096,-0.0508 -1.16841,-0.0508 -1.778,0 -3.2004,0.8636 -1.4224,0.8128 -2.4384,2.1844 -1.016,1.3716 -1.5748,3.149603 -0.508,1.777992 -0.508,3.657582 0,1.3208 0.2032,2.184401 0.254,0.8636 0.6604,1.3716 0.4572,0.508 1.0668,0.7112 0.6096,0.2032 1.3716,0.2032 z m 10.76961,-4.978391 q -0.2032,0.91439 -0.3048,1.82879 -0.1016,0.863601 -0.1016,1.778001 0,1.4732 0.254,2.8956 0.3048,1.3716 0.762,2.7432 l -5.4864,0.9144 q -0.1016,-0.2032 -0.254,-0.508 -0.1524,-0.3048 -0.3048,-0.6604 -0.1524,-0.3556 -0.254,-0.6096 -0.1016,-0.3048 -0.1524,-0.4572 -1.01601,0.762 -2.74321,1.5748 -1.7272,0.8128 -4.4704,0.8128 -3.3528,-0.0508 -5.2832,-2.3876 -1.930404,-2.3876 -1.930404,-6.908801 0,-3.45439 1.1684,-6.299185 1.168404,-2.8956 3.149604,-4.9276 2.032,-2.032 4.7244,-3.1496 2.7432,-1.1176 5.79121,-1.1176 1.3716,0 2.6416,0.3556 l 2.4384,-10.3124 6.5024,-1.0668 z" />
      </g>
      <g
         id="g5281"
         transform="translate(6.879167)">
        <path
           sodipodi:nodetypes="cccccccccc"
           inkscape:connector-curvature="0"
           id="path4530-8"
           d="m 161.66808,80.811799 c -3.6005,0.38606 -8.68984,0.25601 -10.75586,3.04883 -2.02597,8.44207 -4.05253,16.884001 -6.07812,25.326171 5.74489,0.12889 9.94161,2.37382 11.90648,-6.38856 0.90552,-4.791372 1.15445,-9.858581 3.76344,-12.580191 3.49178,-0.22516 0.46036,2.680642 0.25658,6.7829 -1.39579,5.056381 -6.8557,13.472931 2.56373,12.185851 7.54332,1.24684 6.18141,-2.99012 7.81308,-12.206941 1.9883,-5.29768 2.26689,-13.82997 -4.53964,-15.64658 -1.59539,-0.47154 -3.2754,-0.56132 -4.92969,-0.52148 z"
           style="font-style:italic;font-variant:normal;font-weight:bold;font-stretch:normal;font-size:50.79999924px;line-height:125%;font-family:'Ubuntu Mono';-inkscape-font-specification:'Ubuntu Mono, Bold Italic';font-variant-ligatures:normal;font-variant-caps:normal;font-variant-numeric:normal;font-feature-settings:normal;text-align:start;letter-spacing:0px;word-spacing:0px;writing-mode:lr-tb;text-anchor:start;fill:#000000;fill-opacity:1;stroke:none;stroke-width:0.26458332px;stroke-linecap:butt;stroke-linejoin:miter;stroke-opacity:1" />
        <path
           inkscape:connector-curvature="0"
           id="path4530"
           style="font-style:italic;font-variant:normal;font-weight:bold;font-stretch:normal;font-size:50.79999924px;font-family:'Ubuntu Mono';-inkscape-font-specification:'Ubuntu Mono, Bold Italic';font-variant-ligatures:normal;font-variant-caps:normal;font-variant-numeric:normal;font-feature-settings:normal;text-align:start;writing-mode:lr-tb;text-anchor:start;fill:url(#linearGradient4653);fill-opacity:1;stroke-width:0.26458332px"
           d="m 152.65665,84.692019 q 1.5748,-0.508 4.1148,-1.016 2.54,-0.508 5.4356,-0.508 4.2672,0 6.096,1.8288 1.8796,1.8288 1.8796,5.08 0,0.8636 -0.1524,1.8796 -0.1016,1.016 -0.3556,2.1336 l -3.302,13.461991 h -6.2484 l 3.0988,-12.649191 q 0.1524,-0.8128 0.3556,-1.6764 0.2032,-0.8636 0.2032,-1.7272 0,-1.1684 -0.6604,-2.032 -0.6096,-0.9144 -2.286,-0.9144 -0.7112,0 -1.4732,0.1524 -0.762,0.1016 -1.4732,0.4064 l -4.4704,18.440391 h -6.2484 z" />
      </g>
      <g
         id="g5285"
         transform="translate(-6.879167)">
        <path
           sodipodi:nodetypes="cccccccccccccc"
           inkscape:connector-curvature="0"
           id="path4522-3"
           d="m 58.066417,74.803749 c -3.980372,0.50568 -10.297531,-0.51982 -9.772912,5.30711 -2.418685,10.16067 -4.838323,20.321121 -7.256385,30.481951 5.73619,0.16139 12.493162,1.61928 11.793281,-6.39191 0.40848,-6.413571 2.513605,-5.573001 3.659844,-0.1745 1.352596,3.01829 -0.04714,6.66197 5.232422,6.56641 5.163627,0.0231 7.74332,-0.11149 5.455078,-4.9707 -0.464234,-3.03166 -2.621493,-6.464871 -2.818359,-8.998051 7.931897,-3.86151 9.43024,-18.04621 0.01758,-21.0293 -2.022106,-0.69269 -4.18696,-0.85251 -6.310547,-0.79101 z m 0.40625,9.18359 c 4.523525,-0.0282 1.267295,6.9673 -2.201172,5.83399 1.017659,-1.30373 0.146741,-5.99238 2.201172,-5.83399 z"
           style="font-style:italic;font-variant:normal;font-weight:bold;font-stretch:normal;font-size:50.79999924px;line-height:125%;font-family:'Ubuntu Mono';-inkscape-font-specification:'Ubuntu Mono, Bold Italic';font-variant-ligatures:normal;font-variant-caps:normal;font-variant-numeric:normal;font-feature-settings:normal;text-align:start;letter-spacing:0px;word-spacing:0px;writing-mode:lr-tb;text-anchor:start;fill:#000000;fill-opacity:1;stroke:none;stroke-width:0.26458332px;stroke-linecap:butt;stroke-linejoin:miter;stroke-opacity:1" />
        <path
           id="path4522"
           style="font-style:italic;font-variant:normal;font-weight:bold;font-stretch:normal;font-size:50.79999924px;line-height:125%;font-family:'Ubuntu Mono';-inkscape-font-specification:'Ubuntu Mono, Bold Italic';font-variant-ligatures:normal;font-variant-caps:normal;font-variant-numeric:normal;font-feature-settings:normal;text-align:start;letter-spacing:0px;word-spacing:0px;writing-mode:lr-tb;text-anchor:start;fill:url(#linearGradient4617);fill-opacity:1;stroke:none;stroke-width:0.26458332px;stroke-linecap:butt;stroke-linejoin:miter;stroke-opacity:1"
           d="m 61.093259,95.320429 q 0.762,1.27001 1.4224,2.84481 0.7112,1.574805 1.3208,3.302001 0.6096,1.6764 1.0668,3.4036 0.508,1.7272 0.8128,3.302 h -6.096 q -0.5588,-3.048 -1.5748,-5.8928 -1.016,-2.844801 -2.3876,-5.689601 H 52.40646 l -2.794,11.582401 h -6.1468 l 7.366,-30.93721 q 0.9652,-0.2032 2.032,-0.3556 1.1176,-0.2032 2.184399,-0.3048 1.0668,-0.1016 2.032,-0.1524 0.9652,-0.0508 1.7272,-0.0508 5.0292,0 7.5184,2.2352 2.4892,2.1844 2.4892,5.9436 0,1.778 -0.508,3.5052 -0.4572,1.6764 -1.4732,3.1496 -0.9652,1.4224 -2.4384,2.539996 -1.4224,1.066803 -3.302,1.574803 z m -5.1308,-3.911599 q 1.3208,0 2.4892,-0.3556 1.2192,-0.3556 2.1336,-1.1176 0.9144,-0.762 1.4224,-1.9304 0.5588,-1.1684 0.5588,-2.7432 0,-1.778 -1.0668,-2.7432 -1.0668,-0.9652 -3.6576,-0.9652 -0.5588,0 -1.016,0.0508 -0.4572,0.0508 -0.8636,0.1524 l -2.336799,9.652 z"
           inkscape:connector-curvature="0" />
      </g>
      <g
         id="g5258"
         transform="matrix(0.06123543,0,0,0.06123543,122.49738,81.367295)"
         style="stroke-width:1.24535811px">
	<path
   id="path5236"
   d="m 462.5,242.5 c -4.142,0 -7.5,-3.357 -7.5,-7.5 0,-38.635 -88.401,-80 -220,-80 -131.599,0 -220,41.365 -220,80 0,4.143 -3.358,7.5 -7.5,7.5 C 3.358,242.5 0,239.142 0,235 0,208.307 25.372,183.848 71.441,166.128 115.249,149.279 173.335,140 235,140 c 61.665,0 119.751,9.279 163.559,26.128 C 444.628,183.848 470,208.307 470,235 c 0,4.142 -3.358,7.5 -7.5,7.5 z"
   style="fill:#082947;stroke-width:1.24535811px"
   inkscape:connector-curvature="0" />

	<path
   id="path5238"
   d="m 121.243,439.522 c -1.272,0 -2.562,-0.324 -3.743,-1.006 -23.118,-13.348 -31.614,-47.55 -23.924,-96.306 7.312,-46.363 28.319,-101.307 59.152,-154.711 30.833,-53.403 67.912,-99.068 104.407,-128.582 38.38,-31.037 72.247,-40.78 95.365,-27.434 3.587,2.071 4.816,6.658 2.745,10.245 -2.072,3.587 -6.658,4.813 -10.245,2.745 C 311.544,25.154 231.516,81.033 165.718,195 99.919,308.968 91.542,406.209 125,425.526 c 3.587,2.071 4.816,6.658 2.745,10.245 -1.389,2.407 -3.91,3.751 -6.502,3.751 z"
   style="fill:#274b6d;stroke-width:1.24535811px"
   inkscape:connector-curvature="0" />

	<path
   id="path5240"
   d="m 329.625,444.347 c -20.431,0.002 -45.329,-11.299 -72.49,-33.264 C 220.64,381.568 183.561,335.904 152.728,282.5 121.895,229.096 100.888,174.152 93.576,127.79 85.887,79.033 94.383,44.831 117.5,31.484 c 3.587,-2.07 8.174,-0.843 10.245,2.745 2.071,3.587 0.842,8.174 -2.745,10.245 -17.112,9.88 -23.166,39.396 -16.607,80.979 7.032,44.588 27.391,97.698 57.325,149.547 57.217,99.103 125.197,154.279 163.955,154.285 5.813,10e-4 10.963,-1.239 15.327,-3.759 3.587,-2.07 8.174,-0.843 10.245,2.745 2.071,3.587 0.842,8.174 -2.745,10.245 -6.757,3.902 -14.437,5.831 -22.875,5.831 z"
   style="fill:#6da8d6;stroke-width:1.24535811px"
   inkscape:connector-curvature="0" />

	<path
   id="path5242"
   d="M 235,330 C 173.334,330 115.248,320.721 71.441,303.872 25.372,286.153 0,261.693 0,235 c 0,-4.143 3.358,-7.5 7.5,-7.5 4.142,0 7.5,3.357 7.5,7.5 0,38.635 88.401,80 220,80 131.599,0 220,-41.365 220,-80 0,-4.143 3.358,-7.5 7.5,-7.5 4.142,0 7.5,3.357 7.5,7.5 0,26.693 -25.372,51.153 -71.441,68.872 C 354.752,320.721 296.666,330 235,330 Z"
   style="fill:#082947;stroke-width:1.24535811px"
   inkscape:connector-curvature="0" />

	<circle
   id="circle5244"
   r="20"
   cy="185.05701"
   cx="49.396999"
   style="fill:#6da8d6;stroke-width:1.24535811px" />

	<circle
   id="circle5246"
   r="19.997"
   cy="421.74899"
   cx="284.94901"
   style="fill:#f2484b;stroke-width:1.24535811px" />

	<circle
   id="circle5248"
   r="19.997"
   cy="98.542999"
   cx="98.346001"
   style="fill:#f2484b;stroke-width:1.24535811px" />

	<circle
   id="circle5250"
   r="45"
   cy="235"
   cx="235"
   style="fill:#f48205;stroke-width:1.24535811px" />

	<path
   id="path5252"
   d="m 140.375,444.347 c -8.44,0 -16.116,-1.928 -22.875,-5.83 -3.587,-2.071 -4.816,-6.658 -2.745,-10.245 2.071,-3.588 6.658,-4.816 10.245,-2.745 33.458,19.32 113.483,-36.56 179.282,-150.526 29.935,-51.849 50.293,-104.959 57.325,-149.547 6.558,-41.583 0.505,-71.099 -16.607,-80.979 -3.587,-2.071 -4.816,-6.658 -2.745,-10.245 2.071,-3.588 6.658,-4.816 10.245,-2.745 23.118,13.347 31.614,47.549 23.924,96.306 -7.312,46.362 -28.319,101.306 -59.152,154.71 -30.833,53.404 -67.912,99.068 -104.407,128.583 -27.159,21.962 -52.06,33.263 -72.49,33.263 z"
   style="fill:#274b6d;stroke-width:1.24535811px"
   inkscape:connector-curvature="0" />

	<path
   id="path5254"
   d="m 348.757,439.522 c -2.592,0 -5.113,-1.345 -6.502,-3.751 -2.071,-3.587 -0.842,-8.174 2.745,-10.245 C 378.458,406.209 370.081,308.967 304.282,195 238.483,81.033 158.458,25.158 125,44.474 c -3.587,2.069 -8.174,0.843 -10.245,-2.745 -2.071,-3.587 -0.842,-8.174 2.745,-10.245 23.119,-13.348 56.986,-3.604 95.365,27.434 36.496,29.514 73.575,75.179 104.407,128.582 30.833,53.404 51.84,108.348 59.152,154.711 7.689,48.756 -0.807,82.958 -23.924,96.306 -1.181,0.681 -2.471,1.005 -3.743,1.005 z"
   style="fill:#6da8d6;stroke-width:1.24535811px"
   inkscape:connector-curvature="0" />

	<circle
   id="circle5256"
   r="19.997"
   cy="98.542999"
   cx="371.65399"
   style="fill:#6da8d6;stroke-width:1.24535811px" />

</g>
    </g>
  </g>
</svg>
